<?xml version="1.0" encoding="utf-8"?>
<!-- Generator: Adobe Illustrator 15.0.0, SVG Export Plug-In . SVG Version: 6.00 Build 0)  -->
<!DOCTYPE svg PUBLIC "-//W3C//DTD SVG 1.1//EN" "http://www.w3.org/Graphics/SVG/1.1/DTD/svg11.dtd">
<svg version="1.1" id="Layer_1" xmlns="http://www.w3.org/2000/svg" xmlns:xlink="http://www.w3.org/1999/xlink" x="0px" y="0px"
	 width="64px" height="64px" viewBox="0 0 64 64" enable-background="new 0 0 64 64" xml:space="preserve">
<title>user_settings_2</title>
<path id="user_settings_2" d="M48,52c-3.313,0-6-2.687-6-6s2.687-6,6-6s6,2.687,6,6S51.313,52,48,52z M48,42c-2.209,0-4,1.791-4,4
	s1.791,4,4,4s4-1.791,4-4S50.209,42,48,42z M49,60h-2c-1.104,0-2-0.896-2-2v-1.42c-0.838-0.235-1.644-0.57-2.4-1l-0.83,0.83
	c-0.777,0.762-2.021,0.762-2.799,0L37.58,55c-0.762-0.777-0.762-2.022,0-2.8l0.83-0.83c-0.426-0.759-0.762-1.563-1-2.4H36
	c-1.104,0-2-0.896-2-2V45c0-1.104,0.896-2,2-2h1.42c0.234-0.838,0.57-1.644,1-2.4l-0.83-0.83c-0.762-0.777-0.762-2.021,0-2.8
	L39,35.58c0.777-0.762,2.022-0.762,2.8,0l0.83,0.83c0.757-0.43,1.563-0.766,2.399-1V34c0-1.104,0.896-2,2-2h2c1.105,0,2,0.896,2,2
	v1.41c0.838,0.234,1.645,0.57,2.4,1l0.83-0.83c0.777-0.762,2.022-0.762,2.801,0L58.42,37c0.762,0.777,0.762,2.022,0,2.8l-0.84,0.83
	c0.426,0.759,0.761,1.563,1,2.4H60c1.104,0,2,0.896,2,2v2c0,1.104-0.896,2-2,2h-1.42c-0.234,0.837-0.57,1.644-1,2.399l0.83,0.83
	c0.762,0.777,0.762,2.022,0,2.801L57,56.42c-0.777,0.762-2.022,0.762-2.8,0l-0.841-0.83c-0.758,0.426-1.563,0.762-2.399,1V58
	C50.961,59.089,50.089,59.979,49,60z M42.45,53.32c0.199-0.001,0.394,0.059,0.56,0.17c0.967,0.647,2.051,1.1,3.19,1.33
	c0.474,0.096,0.81,0.518,0.8,1V58h2v-2.21c-0.01-0.483,0.326-0.903,0.8-1c1.141-0.224,2.228-0.665,3.2-1.3
	c0.395-0.266,0.922-0.215,1.26,0.119L55.641,55L57,53.62l-1.391-1.36c-0.334-0.338-0.385-0.865-0.119-1.26
	c0.645-0.967,1.093-2.051,1.32-3.189c0.096-0.474,0.517-0.811,1-0.801H60V45h-2.2c-0.482,0.01-0.903-0.327-1-0.8
	c-0.228-1.142-0.672-2.228-1.31-3.2c-0.262-0.397-0.208-0.924,0.13-1.26L57,38.35L55.62,37l-1.36,1.391
	c-0.336,0.337-0.862,0.392-1.26,0.129c-0.967-0.645-2.051-1.097-3.189-1.33c-0.474-0.096-0.811-0.517-0.801-1V34H47v2.2
	c0.01,0.482-0.326,0.903-0.8,1c-1.142,0.223-2.229,0.668-3.2,1.31c-0.395,0.266-0.922,0.215-1.26-0.119L40.359,37L39,38.38
	l1.391,1.36c0.334,0.338,0.385,0.865,0.119,1.26c-0.647,0.967-1.1,2.05-1.33,3.189c-0.096,0.474-0.518,0.811-1,0.801H36v2h2.2
	c0.482-0.01,0.903,0.326,1,0.8c0.226,1.145,0.671,2.234,1.31,3.21c0.266,0.395,0.215,0.922-0.119,1.26L39,53.641L40.38,55
	l1.37-1.391C41.936,53.426,42.188,53.321,42.45,53.32z M41.6,29.23c-2.713-2.219-5.896-3.79-9.31-4.59
	c5.323-2.927,7.267-9.616,4.339-14.939c-2.928-5.324-9.615-7.266-14.939-4.339c-5.323,2.927-7.266,9.615-4.339,14.938
	c1.005,1.829,2.51,3.334,4.339,4.339C11.328,27.099,4.009,36.35,4,47c0,0.553,0.448,1,1,1s1-0.447,1-1
	c-0.002-11.598,9.399-21.001,20.997-21.003c4.863-0.001,9.575,1.686,13.333,4.773c0.447,0.324,1.072,0.225,1.396-0.223
	C42.022,30.139,41.969,29.574,41.6,29.23z M18,15c0-4.971,4.029-9,9-9s9,4.029,9,9s-4.029,9-9,9S18,19.971,18,15z"/>
</svg>
