<?xml version="1.0" encoding="utf-8"?>
<!-- Generator: Adobe Illustrator 15.0.0, SVG Export Plug-In . SVG Version: 6.00 Build 0)  -->
<!DOCTYPE svg PUBLIC "-//W3C//DTD SVG 1.1//EN" "http://www.w3.org/Graphics/SVG/1.1/DTD/svg11.dtd">
<svg version="1.1" id="Layer_1" xmlns="http://www.w3.org/2000/svg" xmlns:xlink="http://www.w3.org/1999/xlink" x="0px" y="0px"
	 width="64px" height="64px" viewBox="0 0 64 64" enable-background="new 0 0 64 64" xml:space="preserve">
<title>user_2</title>
<path id="user_2" d="M36.7,32.66c6.451-3.151,9.127-10.935,5.976-17.387c-3.15-6.451-10.935-9.127-17.386-5.976
	c-6.452,3.151-9.127,10.935-5.977,17.386c1.271,2.602,3.375,4.706,5.977,5.977C13.989,35.311,6,45.393,6,57c0,0.553,0.448,1,1,1
	s1-0.447,1-1c0-12.703,10.297-23,23-23c12.703,0,23,10.297,23,23c0,0.553,0.447,1,1,1s1-0.447,1-1
	C56,45.389,48.005,35.307,36.7,32.66z M20,21c0-6.075,4.925-11,11-11s11,4.925,11,11s-4.925,11-11,11S20,27.075,20,21z"/>
</svg>
